Movies : Family : HD 1080p / 1080i : English
NOTE: Yes this is 3D even though the 3D version of the film has not been released on Blu-ray. This version was ripped from Direct TV and is the theatrical cut of the film. This is not converted from the anaglyph version nor is it a 2D to 3D conversion, it is the original 3D footage.

This is a stereoscopic 3D rip of The Nightmare Before Christmas 3D, for new 3D TVs or computers with Nvidia 3D Vision. Tested with Stereoscopic Player. Enjoy!

Title: The Nightmare Before Christmas (1993)
Rated: PG
Runtime: 76 min
Genre: Animation | Family | Fantasy 

Description:
Jack Skellington, the pumpkin king of Halloween Town, is bored with doing the same thing every year for Halloween. One day he stumbles into Christmas Town, and is so taken with the idea of Christmas that he tries to get the resident bats, ghouls, and goblins of Halloween town to help him put on Christmas instead of Halloween -- but alas, they can't get it quite right.
-From IMDB Page: http://www.imdb.com/title/tt0107688/

General
Unique ID : 180159113728522812874784146969211006510 (0x87896218A29A13F69F3FBB15786D6E2E)
Complete name : [filepath]\The Nightmare Before Christmas 3D.mkv
Format : Matroska
File size : 9.73 GiB
Duration : 1h 13mn
Overall bit rate : 18.9 Mbps
Encoded date : UTC 2011-04-11 17:59:53
Writing application : mkvmerge v4.5.0 ('Speed of Light') built on Feb             1 2011 02      :10:32
Writing library : libebml v1.2.0 + libmatroska v1.1.0

Video
ID : 1
Format : AVC
Format/Info : Advanced Video Codec
Format profile : Main@L4.0
Format settings, CABAC : Yes
Format settings, ReFrames : 3 frames
Format settings, GOP : M=1, N=14
Muxing mode : Container profile=Unknown@0.0
Codec ID : V_MPEG4/ISO/AVC
Duration : 1h 13mn
Bit rate mode : Variable
Bit rate : 16.1 Mbps
Maximum bit rate : 40.0 Mbps
Width : 1 920 pixels
Height : 1 080 pixels
Display aspect ratio : 16:9
Frame rate : 25.000 fps
Standard : Component
Color space : YUV
Chroma subsampling : 4:2:0
Bit depth : 8 bits
Scan type : Interlaced
Scan order : Top Field First
Bits/(Pixel*Frame) : 0.311
Stream size : 8.29 GiB (85%)
Title : TV Capture
Color primaries : BT.709-5, BT.1361, IEC 61966-2-4, SMPTE RP177
Transfer characteristics : BT.709-5, BT.1361
Matrix coefficients : BT.709-5, BT.1361, IEC 61966-2-4 709, SMPTE RP177

Audio #1
ID : 2
Format : AC-3
Format/Info : Audio Coding 3
Mode extension : CM (complete main)
Muxing mode : Header stripping
Codec ID : A_AC3
Duration : 1h 13mn
Bit rate mode : Constant
Bit rate : 640 Kbps
Channel(s) : 6 channels
Channel positions : Front: L C R, Side: L R, LFE
Sampling rate : 48.0 KHz
Bit depth : 16 bits
Compression mode : Lossy
Stream size : 337 MiB (3%)
Language : English

Audio #2
ID : 3
Format : MPEG Audio
Format version : Version 1
Format profile : Layer 3
Muxing mode : Header stripping
Codec ID : A_MPEG/L3
Codec ID/Hint : MP3
Duration : 1h 13mn
Bit rate mode : Constant
Bit rate : 256 Kbps
Channel(s) : 2 channels
Sampling rate : 44.1 KHz
Compression mode : Lossy
Delay relative to video : 28s 0ms
Stream size : 135 MiB (1%)
Language : Spanish

Audio #3
ID : 4
Format : DTS
Format/Info : Digital Theater Systems
Muxing mode : Header stripping
Codec ID : A_DTS
Duration : 1h 13mn
Bit rate mode : Constant
Bit rate : 1 510 Kbps
Channel(s) : 6 channels
Channel positions : Front: L C R, Side: L R, LFE
Sampling rate : 48.0 KHz
Bit depth : 24 bits
Compression mode : Lossy
Stream size : 796 MiB (8%)
Language : German

I have tested the file using Nvidia 3D Vision and stereoscopic player

Sterioscopic Player:
